<?xml version="1.0" encoding="iso-8859-1"?>
<!-- Uploaded to: SVG Repo, www.svgrepo.com, Generator: SVG Repo Mixer Tools -->
<svg fill="#000000" height="800px" width="800px" version="1.1" id="Capa_1" xmlns="http://www.w3.org/2000/svg" xmlns:xlink="http://www.w3.org/1999/xlink" 
	 viewBox="0 0 60 60" xml:space="preserve">
<g>
	<path d="M52,9.632V12c0,1.294-0.416,2.49-1.115,3.471l1.479,1.479c0.391,0.39,0.391,1.023,0,1.414
		c-0.195,0.195-0.451,0.293-0.707,0.293s-0.512-0.098-0.707-0.293l-1.479-1.479C48.749,17.4,47.909,17.756,47,17.91V20
		c0,0.552-0.447,1-1,1s-1-0.448-1-1v-2.09c-0.909-0.154-1.749-0.51-2.471-1.024l-1.479,1.479c-0.195,0.195-0.451,0.293-0.707,0.293
		s-0.512-0.098-0.707-0.293c-0.391-0.391-0.391-1.024,0-1.414l1.479-1.479C40.6,14.749,40.244,13.909,40.09,13H38
		c-0.553,0-1-0.448-1-1s0.447-1,1-1h2.09c0.154-0.909,0.51-1.749,1.025-2.471L39.636,7.05c-0.391-0.39-0.391-1.023,0-1.414
		s1.023-0.391,1.414,0l1.479,1.479C43.51,6.416,44.706,6,46,6h1.979C42.965,2.234,36.739,0,30,0C13.458,0,0,13.458,0,30
		c0,4.251,0.894,8.296,2.496,11.964l0.233-0.428l7.779-13.191l-0.001-0.001l5.451-9.242l4.694,7.222l0,0l0.482,0.742l1.458-2.473
		l-0.001-0.002l7.462-12.652l11.475,22.065l6.43-10.902L58.247,38.93l0.248,0.436C59.467,36.417,60,33.27,60,30
		C60,22.143,56.96,14.986,52,9.632z"/>
	<path d="M19.445,28.135l-2.29,3.434L15,29.414l-2.108,2.108l-1.084-1.445L4.469,42.522l-0.901,1.653
		c1.114,2.069,2.466,3.991,4.016,5.734l0.463-0.648L20,28.99L19.445,28.135z"/>
	<path d="M54.266,36.472l-0.875,2.333L50,35.414l-3.219,3.219l-2.785-4.875l-15.14,25.673l-0.313,0.532
		C29.026,59.986,29.511,60,30,60c12.355,0,22.987-7.509,27.579-18.201l-1.04-1.83L54.266,36.472z"/>
	<path d="M37.696,30.966l-3.172-1.586l-2.423,6.059l-3.376-6.751l-3.063,3.063l-2.093-4.881L9.723,50.351l-0.738,1.031
		c4.595,4.517,10.633,7.563,17.351,8.386l0.796-1.352l13.2-22.382L37.696,30.966z"/>
	<circle cx="46" cy="12" r="4"/>
</g>
</svg>